<?xml version="1.0" encoding="UTF-8"?>
<svg width="24px" height="24px" viewBox="0 0 24 24" version="1.1" xmlns="http://www.w3.org/2000/svg" xmlns:xlink="http://www.w3.org/1999/xlink">
    <!-- Generator: Sketch 52.6 (67491) - http://www.bohemiancoding.com/sketch -->
    <title>icon_twitter</title>
    <desc>Created with Sketch.</desc>
    <g id="icon_twitter" stroke="none" stroke-width="1" fill="none" fill-rule="evenodd">
        <g id="Twitter_Logo_WhiteOnBlue" transform="translate(2.000000, 4.000000)" fill="#666666">
            <g id="Logo_FIXED">
                <path d="M6.2896,15.9261517 C13.8368,15.9261517 17.9648,9.79840772 17.9648,4.48445572 C17.9648,4.31040772 17.9648,4.13714372 17.9528,3.96466372 C18.7558651,3.39540983 19.4490844,2.69056917 20,1.88314372 C19.2511032,2.20834831 18.4566634,2.42161738 17.6432,2.51583172 C18.4997952,2.01327365 19.1408988,1.22283696 19.4472,0.291623721 C18.641726,0.760028688 17.7605169,1.09013714 16.8416,1.26770372 C15.5696662,-0.0577311648 13.5485755,-0.382136013 11.9116394,0.476396784 C10.2747034,1.33492958 9.42901999,3.16288709 9.8488,4.93525572 C6.54951659,4.77316336 3.47558062,3.24598917 1.392,0.733799721 C0.302898205,2.57121719 0.859190307,4.92181755 2.6624,6.10184772 C2.00939296,6.08288084 1.3706235,5.91024845 0.8,5.59851972 C0.8,5.61498372 0.8,5.63223172 0.8,5.64947972 C0.800534506,7.56368861 2.17740119,9.21239529 4.092,9.59143172 C3.48789568,9.75288872 2.85406447,9.77649045 2.2392,9.66042372 C2.77675834,11.2985312 4.31725965,12.4207183 6.0728,12.4530317 C4.61978803,13.5721384 2.82484761,14.1796567 0.9768,14.1778317 C0.650322855,14.1772175 0.324163252,14.1578456 0,14.1198157 C1.87650876,15.2999525 4.05993072,15.9259298 6.2896,15.9230157" id="Path"></path>
            </g>
        </g>
    </g>
</svg>