<?xml version="1.0" encoding="UTF-8"?>
<svg width="28px" height="30px" viewBox="0 0 28 30" version="1.1" xmlns="http://www.w3.org/2000/svg" xmlns:xlink="http://www.w3.org/1999/xlink">
    <!-- Generator: Sketch 52.6 (67491) - http://www.bohemiancoding.com/sketch -->
    <title>core</title>
    <desc>Created with Sketch.</desc>
    <g id="core" stroke="none" stroke-width="1" fill="none" fill-rule="evenodd">
        <g id="Group-2">
            <path d="M8.78893248,4.07775502 L9.94627528,6.73864465 C5.88310756,8.30118518 3.01324503,12.1170604 3.01324503,16.5765187 C3.01324503,22.4271339 7.95293779,27.1699947 14.0463576,27.1699947 C20.1397774,27.1699947 25.0794702,22.4271339 25.0794702,16.5765187 C25.0794702,12.034565 22.1024465,8.16022584 17.9197321,6.65425199 L19.0228642,4.00676314 C24.2735616,5.9451669 28,10.833675 28,16.5578583 C28,23.9817482 21.7319865,30 14,30 C6.2680135,30 0,23.9817482 0,16.5578583 C0,10.9023068 3.63761557,6.06251153 8.78893248,4.07775502 Z" id="Combined-Shape" fill="#666666"></path>
            <path d="M7.49966212,1.02326793 C9.35777,0.361125697 11.3631606,0 13.4545479,0 C15.7694148,0 17.9789243,0.442426858 19.9999697,1.24576975 L18.9064318,3.93853446 C17.2768291,3.31026932 15.5020535,2.96523743 13.6451137,2.96523743 C11.911884,2.96523743 10.2502355,3.26582834 8.71140423,3.81675809 L7.49966212,1.02326793 Z" id="Combined-Shape" fill="#666666"></path>
            <g id="Group" transform="translate(12.500000, 2.000000)" fill="#666666">
                <rect id="Rectangle" x="0" y="0" width="3" height="9"></rect>
            </g>
            <circle id="Oval" stroke="#666666" stroke-width="3" cx="14" cy="16" r="6.5"></circle>
            <circle id="Oval" fill="#666666" cx="14" cy="16" r="2"></circle>
        </g>
    </g>
</svg>