<?xml version="1.0" encoding="UTF-8"?>
<svg width="223px" height="139px" viewBox="0 0 223 139" version="1.1" xmlns="http://www.w3.org/2000/svg" xmlns:xlink="http://www.w3.org/1999/xlink">
    <!-- Generator: Sketch 52.6 (67491) - http://www.bohemiancoding.com/sketch -->
    <title>web_logo</title>
    <desc>Created with Sketch.</desc>
    <defs>
        <circle id="path-1" cx="114" cy="48" r="45"></circle>
        <filter x="-13.3%" y="-10.0%" width="126.7%" height="126.7%" filterUnits="objectBoundingBox" id="filter-2">
            <feOffset dx="0" dy="3" in="SourceAlpha" result="shadowOffsetOuter1"></feOffset>
            <feGaussianBlur stdDeviation="3.5" in="shadowOffsetOuter1" result="shadowBlurOuter1"></feGaussianBlur>
            <feColorMatrix values="0 0 0 0 0   0 0 0 0 0   0 0 0 0 0  0 0 0 0.2 0" type="matrix" in="shadowBlurOuter1"></feColorMatrix>
        </filter>
    </defs>
    <g id="web_logo" stroke="none" stroke-width="1" fill="none" fill-rule="evenodd">
        <g id="Oval">
            <use fill="black" fill-opacity="1" filter="url(#filter-2)" xlink:href="#path-1"></use>
            <use fill="#0FBA71" fill-rule="evenodd" xlink:href="#path-1"></use>
        </g>
        <g id="netmonster-logo" transform="translate(88.000000, 20.000000)" fill="#FFFFFF">
            <path d="M38.492544,53.4183942 C34.649874,55.0779846 30.3967224,56 25.9224628,56 C21.511386,56 17.3152167,55.1038411 13.5154185,53.4882598 L25.9589472,23.5750332 L38.492544,53.4183942 Z" id="Combined-Shape"></path>
            <ellipse id="Oval" cx="25.9618209" cy="23.5750332" rx="3.81791483" ry="3.7184595"></ellipse>
            <path d="M19.9254587,9.61543801 L21.7762103,14.0222054 C17.9078842,15.623892 15.195301,19.3589174 15.195301,23.7109967 C15.195301,29.5228218 20.0327295,34.234237 26,34.234237 C31.9672705,34.234237 36.804699,29.5228218 36.804699,23.7109967 C36.804699,19.2030139 33.8942903,15.3570859 29.8036894,13.8583576 L31.639638,9.44488712 C37.5195868,11.6512426 41.69163,17.206595 41.69163,23.7109967 C41.69163,32.1514919 34.6662479,38.9938652 26,38.9938652 C17.3337521,38.9938652 10.30837,32.1514919 10.30837,23.7109967 C10.30837,17.3681376 14.2757537,11.9277723 19.9254587,9.61543801 Z" id="Combined-Shape"></path>
            <path d="M15.9949825,0.258775074 L17.7833817,4.51707735 C10.1196359,7.63605142 4.73421439,15.0062503 4.73421439,23.6015157 C4.73421439,35.0198012 14.2381375,44.2761505 25.9618209,44.2761505 C37.6855042,44.2761505 47.1894273,35.0198012 47.1894273,23.6015157 C47.1894273,14.862553 41.6224316,7.38996099 33.7539922,4.36422528 L35.5385187,0.0743691899 C45.178842,3.77898612 52,12.9330105 52,23.6387003 C52,37.6240464 40.3594035,48.9614094 26,48.9614094 C11.6405965,48.9614094 0,37.6240464 0,23.6387003 C0,13.1065233 6.60184153,4.07612196 15.9949825,0.258775074 Z" id="Combined-Shape"></path>
        </g>
        <path d="M62.688,114.96 C63.0400018,114.96 63.3239989,115.075999 63.54,115.308 C63.7560011,115.540001 63.864,115.839998 63.864,116.208 L63.864,130.872 C63.864,131.240002 63.7520011,131.539999 63.528,131.772 C63.3039989,132.004001 63.0160018,132.12 62.664,132.12 C62.2479979,132.12 61.9280011,131.960002 61.704,131.64 L52.296,119.232 L52.296,130.872 C52.296,131.240002 52.1880011,131.539999 51.972,131.772 C51.7559989,132.004001 51.4720018,132.12 51.12,132.12 C50.7679982,132.12 50.488001,132.008001 50.28,131.784 C50.071999,131.559999 49.968,131.256002 49.968,130.872 L49.968,116.208 C49.968,115.839998 50.0799989,115.540001 50.304,115.308 C50.5280011,115.075999 50.8159982,114.96 51.168,114.96 C51.5840021,114.96 51.9039989,115.119998 52.128,115.44 L61.536,127.872 L61.536,116.208 C61.536,115.839998 61.639999,115.540001 61.848,115.308 C62.056001,115.075999 62.3359982,114.96 62.688,114.96 Z M76.68,129.048 C76.9040011,129.048 77.0879993,129.135999 77.232,129.312 C77.3760007,129.488001 77.448,129.711999 77.448,129.984 C77.448,130.448002 77.1600029,130.839998 76.584,131.16 C76.0239972,131.480002 75.4120033,131.727999 74.748,131.904 C74.0839967,132.080001 73.448003,132.168 72.84,132.168 C70.9839907,132.168 69.5200054,131.628005 68.448,130.548 C67.3759946,129.467995 66.84,127.992009 66.84,126.12 C66.84,124.919994 67.0759976,123.856005 67.548,122.928 C68.0200024,121.999995 68.6839957,121.280003 69.54,120.768 C70.3960043,120.255997 71.3679946,120 72.456,120 C74.0240078,120 75.2639954,120.503995 76.176,121.512 C77.0880046,122.520005 77.544,123.879991 77.544,125.592 C77.544,126.232003 77.2560029,126.552 76.68,126.552 L69.264,126.552 C69.4240008,129.032012 70.6159889,130.272 72.84,130.272 C73.432003,130.272 73.9439978,130.192001 74.376,130.032 C74.8080022,129.871999 75.2639976,129.664001 75.744,129.408 C75.7920002,129.376 75.9239989,129.308001 76.14,129.204 C76.3560011,129.099999 76.5359993,129.048 76.68,129.048 Z M72.504,121.776 C71.5759954,121.776 70.8320028,122.071997 70.272,122.664 C69.7119972,123.256003 69.3760006,124.087995 69.264,125.16 L75.456,125.16 C75.4079998,124.071995 75.1320025,123.236003 74.628,122.652 C74.1239975,122.067997 73.4160046,121.776 72.504,121.776 Z M85.824,130.272 C86.1760018,130.304 86.4279992,130.395999 86.58,130.548 C86.7320008,130.700001 86.808,130.911999 86.808,131.184 C86.808,131.504002 86.6840012,131.747999 86.436,131.916 C86.1879988,132.084001 85.8240024,132.152 85.344,132.12 L84.696,132.072 C83.3999935,131.976 82.4320032,131.580003 81.792,130.884 C81.1519968,130.187997 80.832,129.160007 80.832,127.8 L80.832,122.16 L79.392,122.16 C78.6879965,122.16 78.336,121.848003 78.336,121.224 C78.336,120.935999 78.4279991,120.708001 78.612,120.54 C78.7960009,120.371999 79.0559983,120.288 79.392,120.288 L80.832,120.288 L80.832,117.816 C80.832,117.447998 80.9399989,117.160001 81.156,116.952 C81.3720011,116.743999 81.6639982,116.64 82.032,116.64 C82.4000018,116.64 82.6959989,116.743999 82.92,116.952 C83.1440011,117.160001 83.256,117.447998 83.256,117.816 L83.256,120.288 L85.632,120.288 C85.9680017,120.288 86.2279991,120.371999 86.412,120.54 C86.5960009,120.708001 86.688,120.935999 86.688,121.224 C86.688,121.528002 86.5960009,121.759999 86.412,121.92 C86.2279991,122.080001 85.9680017,122.16 85.632,122.16 L83.256,122.16 L83.256,127.968 C83.256,128.720004 83.4119984,129.271998 83.724,129.624 C84.0360016,129.976002 84.5119968,130.176 85.152,130.224 L85.824,130.272 Z M103.872,114.96 C104.224002,114.96 104.511999,115.075999 104.736,115.308 C104.960001,115.540001 105.072,115.839998 105.072,116.208 L105.072,130.944 C105.072,131.312002 104.972001,131.599999 104.772,131.808 C104.571999,132.016001 104.296002,132.12 103.944,132.12 C103.607998,132.12 103.344001,132.016001 103.152,131.808 C102.959999,131.599999 102.864,131.312002 102.864,130.944 L102.864,119.784 L98.16,128.736 C97.8559985,129.296003 97.4640024,129.576 96.984,129.576 C96.5039976,129.576 96.1120015,129.296003 95.808,128.736 L91.08,119.88 L91.08,130.944 C91.08,131.312002 90.984001,131.599999 90.792,131.808 C90.599999,132.016001 90.3280018,132.12 89.976,132.12 C89.6399983,132.12 89.372001,132.012001 89.172,131.796 C88.971999,131.579999 88.872,131.296002 88.872,130.944 L88.872,116.208 C88.872,115.839998 88.9839989,115.540001 89.208,115.308 C89.4320011,115.075999 89.7199982,114.96 90.072,114.96 C90.5680025,114.96 90.9679985,115.247997 91.272,115.824 L97.008,126.792 L102.696,115.824 C103.000002,115.247997 103.391998,114.96 103.872,114.96 Z M113.832,132.168 C112.679994,132.168 111.668004,131.920002 110.796,131.424 C109.923996,130.927998 109.252002,130.220005 108.78,129.3 C108.307998,128.379995 108.072,127.312006 108.072,126.096 C108.072,124.863994 108.307998,123.788005 108.78,122.868 C109.252002,121.947995 109.923996,121.240002 110.796,120.744 C111.668004,120.247998 112.679994,120 113.832,120 C114.984006,120 115.995996,120.247998 116.868,120.744 C117.740004,121.240002 118.411998,121.947995 118.884,122.868 C119.356002,123.788005 119.592,124.863994 119.592,126.096 C119.592,127.312006 119.356002,128.379995 118.884,129.3 C118.411998,130.220005 117.740004,130.927998 116.868,131.424 C115.995996,131.920002 114.984006,132.168 113.832,132.168 Z M113.832,130.248 C114.904005,130.248 115.723997,129.896004 116.292,129.192 C116.860003,128.487996 117.144,127.456007 117.144,126.096 C117.144,124.751993 116.856003,123.724004 116.28,123.012 C115.703997,122.299996 114.888005,121.944 113.832,121.944 C112.775995,121.944 111.960003,122.299996 111.384,123.012 C110.807997,123.724004 110.52,124.751993 110.52,126.096 C110.52,127.456007 110.803997,128.487996 111.372,129.192 C111.940003,129.896004 112.759995,130.248 113.832,130.248 Z M128.592,120 C131.392014,120 132.792,121.575984 132.792,124.728 L132.792,130.968 C132.792,131.336002 132.684001,131.619999 132.468,131.82 C132.251999,132.020001 131.952002,132.12 131.568,132.12 C131.199998,132.12 130.908001,132.016001 130.692,131.808 C130.475999,131.599999 130.368,131.320002 130.368,130.968 L130.368,124.848 C130.368,123.855995 130.172002,123.128002 129.78,122.664 C129.387998,122.199998 128.776004,121.968 127.944,121.968 C126.967995,121.968 126.184003,122.271997 125.592,122.88 C124.999997,123.488003 124.704,124.303995 124.704,125.328 L124.704,130.968 C124.704,131.320002 124.596001,131.599999 124.38,131.808 C124.163999,132.016001 123.872002,132.12 123.504,132.12 C123.135998,132.12 122.840001,132.016001 122.616,131.808 C122.391999,131.599999 122.28,131.320002 122.28,130.968 L122.28,121.2 C122.28,120.863998 122.395999,120.588001 122.628,120.372 C122.860001,120.155999 123.151998,120.048 123.504,120.048 C123.856002,120.048 124.135999,120.151999 124.344,120.36 C124.552001,120.568001 124.656,120.839998 124.656,121.176 L124.656,122.16 C125.040002,121.455996 125.575997,120.920002 126.264,120.552 C126.952003,120.183998 127.727996,120 128.592,120 Z M140.184,132.168 C138.551992,132.168 137.216005,131.832003 136.176,131.16 C135.887999,130.983999 135.684001,130.800001 135.564,130.608 C135.443999,130.415999 135.384,130.200001 135.384,129.96 C135.384,129.703999 135.455999,129.488001 135.6,129.312 C135.744001,129.135999 135.927999,129.048 136.152,129.048 C136.360001,129.048 136.687998,129.175999 137.136,129.432 C137.616002,129.688001 138.083998,129.895999 138.54,130.056 C138.996002,130.216001 139.567997,130.296 140.256,130.296 C141.024004,130.296 141.623998,130.160001 142.056,129.888 C142.488002,129.615999 142.704,129.232002 142.704,128.736 C142.704,128.415998 142.620001,128.160001 142.452,127.968 C142.283999,127.775999 141.992002,127.604001 141.576,127.452 C141.159998,127.299999 140.544004,127.136001 139.728,126.96 C138.319993,126.655998 137.308003,126.244003 136.692,125.724 C136.075997,125.203997 135.768,124.496004 135.768,123.6 C135.768,122.911997 135.967998,122.292003 136.368,121.74 C136.768002,121.187997 137.319996,120.760002 138.024,120.456 C138.728004,120.151998 139.527996,120 140.424,120 C141.064003,120 141.687997,120.083999 142.296,120.252 C142.904003,120.420001 143.439998,120.663998 143.904,120.984 C144.432003,121.336002 144.696,121.743998 144.696,122.208 C144.696,122.464001 144.620001,122.679999 144.468,122.856 C144.315999,123.032001 144.136001,123.12 143.928,123.12 C143.783999,123.12 143.640001,123.088 143.496,123.024 C143.351999,122.96 143.160001,122.856001 142.92,122.712 C142.487998,122.455999 142.084002,122.256001 141.708,122.112 C141.331998,121.967999 140.864003,121.896 140.304,121.896 C139.631997,121.896 139.092002,122.039999 138.684,122.328 C138.275998,122.616001 138.072,123.007998 138.072,123.504 C138.072,123.952002 138.259998,124.299999 138.636,124.548 C139.012002,124.796001 139.719995,125.031999 140.76,125.256 C141.832005,125.480001 142.671997,125.735999 143.28,126.024 C143.888003,126.312001 144.323999,126.667998 144.588,127.092 C144.852001,127.516002 144.984,128.055997 144.984,128.712 C144.984,129.752005 144.548004,130.587997 143.676,131.22 C142.803996,131.852003 141.640007,132.168 140.184,132.168 Z M153.288,130.272 C153.640002,130.304 153.891999,130.395999 154.044,130.548 C154.196001,130.700001 154.272,130.911999 154.272,131.184 C154.272,131.504002 154.148001,131.747999 153.9,131.916 C153.651999,132.084001 153.288002,132.152 152.808,132.12 L152.16,132.072 C150.863994,131.976 149.896003,131.580003 149.256,130.884 C148.615997,130.187997 148.296,129.160007 148.296,127.8 L148.296,122.16 L146.856,122.16 C146.151996,122.16 145.8,121.848003 145.8,121.224 C145.8,120.935999 145.891999,120.708001 146.076,120.54 C146.260001,120.371999 146.519998,120.288 146.856,120.288 L148.296,120.288 L148.296,117.816 C148.296,117.447998 148.403999,117.160001 148.62,116.952 C148.836001,116.743999 149.127998,116.64 149.496,116.64 C149.864002,116.64 150.159999,116.743999 150.384,116.952 C150.608001,117.160001 150.72,117.447998 150.72,117.816 L150.72,120.288 L153.096,120.288 C153.432002,120.288 153.691999,120.371999 153.876,120.54 C154.060001,120.708001 154.152,120.935999 154.152,121.224 C154.152,121.528002 154.060001,121.759999 153.876,121.92 C153.691999,122.080001 153.432002,122.16 153.096,122.16 L150.72,122.16 L150.72,127.968 C150.72,128.720004 150.875998,129.271998 151.188,129.624 C151.500002,129.976002 151.975997,130.176 152.616,130.224 L153.288,130.272 Z M165.192,129.048 C165.416001,129.048 165.599999,129.135999 165.744,129.312 C165.888001,129.488001 165.96,129.711999 165.96,129.984 C165.96,130.448002 165.672003,130.839998 165.096,131.16 C164.535997,131.480002 163.924003,131.727999 163.26,131.904 C162.595997,132.080001 161.960003,132.168 161.352,132.168 C159.495991,132.168 158.032005,131.628005 156.96,130.548 C155.887995,129.467995 155.352,127.992009 155.352,126.12 C155.352,124.919994 155.587998,123.856005 156.06,122.928 C156.532002,121.999995 157.195996,121.280003 158.052,120.768 C158.908004,120.255997 159.879995,120 160.968,120 C162.536008,120 163.775995,120.503995 164.688,121.512 C165.600005,122.520005 166.056,123.879991 166.056,125.592 C166.056,126.232003 165.768003,126.552 165.192,126.552 L157.776,126.552 C157.936001,129.032012 159.127989,130.272 161.352,130.272 C161.944003,130.272 162.455998,130.192001 162.888,130.032 C163.320002,129.871999 163.775998,129.664001 164.256,129.408 C164.304,129.376 164.435999,129.308001 164.652,129.204 C164.868001,129.099999 165.047999,129.048 165.192,129.048 Z M161.016,121.776 C160.087995,121.776 159.344003,122.071997 158.784,122.664 C158.223997,123.256003 157.888001,124.087995 157.776,125.16 L163.968,125.16 C163.92,124.071995 163.644003,123.236003 163.14,122.652 C162.635997,122.067997 161.928005,121.776 161.016,121.776 Z M174.864,120.048 C175.632004,120 176.016,120.327996 176.016,121.032 C176.016,121.384002 175.928001,121.647999 175.752,121.824 C175.575999,122.000001 175.272002,122.104 174.84,122.136 L174.12,122.208 C173.111995,122.304 172.364002,122.655997 171.876,123.264 C171.387998,123.872003 171.144,124.607996 171.144,125.472 L171.144,130.968 C171.144,131.352002 171.032001,131.639999 170.808,131.832 C170.583999,132.024001 170.296002,132.12 169.944,132.12 C169.591998,132.12 169.300001,132.024001 169.068,131.832 C168.835999,131.639999 168.72,131.352002 168.72,130.968 L168.72,121.2 C168.72,120.831998 168.835999,120.548001 169.068,120.348 C169.300001,120.147999 169.591998,120.048 169.944,120.048 C170.264002,120.048 170.531999,120.147999 170.748,120.348 C170.964001,120.548001 171.072,120.823998 171.072,121.176 L171.072,122.328 C171.392002,121.623996 171.855997,121.088002 172.464,120.72 C173.072003,120.351998 173.759996,120.136 174.528,120.072 L174.864,120.048 Z" id="NetMonster" fill="#000000"></path>
    </g>
</svg>